<?xml version="1.0" encoding="UTF-8" standalone="no"?>
<svg
   id="logosandtypes_com"
   data-name="logosandtypes com"
   viewBox="0 0 256 256"
   version="1.1"
   sodipodi:docname="netlify.svg"
   width="256"
   height="256"
   inkscape:version="1.2.2 (b0a8486541, 2022-12-01)"
   xmlns:inkscape="http://www.inkscape.org/namespaces/inkscape"
   xmlns:sodipodi="http://sodipodi.sourceforge.net/DTD/sodipodi-0.dtd"
   xmlns="http://www.w3.org/2000/svg"
   xmlns:svg="http://www.w3.org/2000/svg">
  <sodipodi:namedview
     id="namedview23"
     pagecolor="#ffffff"
     bordercolor="#000000"
     borderopacity="0.25"
     inkscape:showpageshadow="2"
     inkscape:pageopacity="0.0"
     inkscape:pagecheckerboard="0"
     inkscape:deskcolor="#d1d1d1"
     showgrid="false"
     inkscape:zoom="1.301727"
     inkscape:cx="-97.178595"
     inkscape:cy="240.0657"
     inkscape:window-width="1920"
     inkscape:window-height="919"
     inkscape:window-x="0"
     inkscape:window-y="32"
     inkscape:window-maximized="1"
     inkscape:current-layer="logosandtypes_com" />
  <defs
     id="defs4">
    <style
       id="style2">
      .cls-1 {
        fill: #014847;
      }

      .cls-2 {
        fill: none;
      }

      .cls-3 {
        fill: #05bdba;
      }
    </style>
  </defs>
  <path
     class="cls-2"
     d="M 0.03070352,0 H 255.99553 V 255.99333 H 0.03070352 Z"
     id="path6"
     style="stroke-width:1.70652" />
  <path
     class="cls-3"
     d="m 74.960141,199.06041 h -2.28662 L 61.291619,187.67724 v -2.28687 l 17.388544,-17.39048 h 12.047411 l 1.604046,1.60423 v 12.04874 l -17.388544,17.39048 z"
     id="path8"
     style="stroke-width:1.70652" />
  <path
     class="cls-3"
     d="M 61.291619,70.346966 V 68.060092 L 72.673521,56.676923 h 2.28662 L 92.348684,74.067402 V 86.116155 L 90.744638,87.72038 H 78.697228 L 61.308682,70.329901 Z"
     id="path10"
     style="stroke-width:1.70652" />
  <path
     class="cls-1"
     d="m 161.45919,162.36804 h -16.5524 l -1.3822,-1.38237 v -38.75738 c 0,-6.89477 -2.71323,-12.23648 -11.02356,-12.42422 -4.28314,-0.11946 -9.18059,0 -14.40229,0.2048 l -0.78495,0.80212 v 50.15761 l -1.38222,1.38237 H 99.379184 L 97.996975,160.9686 V 94.76873 l 1.382209,-1.382365 H 136.6306 c 14.47055,0 26.21081,11.741555 26.21081,26.213715 v 41.38559 z"
     id="path12"
     style="stroke-width:1.70652" />
  <path
     class="cls-3"
     d="M 77.315017,137.55375 H 11.105448 l -1.3822097,-1.38236 v -16.58838 l 1.3822097,-1.38236 h 66.209569 l 1.382211,1.38236 v 16.58838 z"
     id="path14"
     style="stroke-width:1.70652" />
  <path
     class="cls-3"
     d="m 249.74999,137.55375 h -66.20957 l -1.38221,-1.38236 v -16.58838 l 1.38221,-1.38236 h 66.20957 l 1.38221,1.38236 v 16.58838 z"
     id="path16"
     style="stroke-width:1.70652" />
  <path
     class="cls-3"
     d="M 120.88023,72.702105 V 23.039399 l 1.38222,-1.382363 h 16.58651 l 1.3822,1.382363 v 49.662706 l -1.3822,1.382364 h -16.58651 z"
     id="path18"
     style="stroke-width:1.70652" />
  <path
     class="cls-3"
     d="m 120.88023,232.715 v -49.66271 l 1.38222,-1.38236 h 16.58651 l 1.3822,1.38236 V 232.715 l -1.3822,1.38237 h -16.58651 z"
     id="path20"
     style="stroke-width:1.70652" />
</svg>
