<?xml version="1.0" encoding="UTF-8" standalone="no"?>
<svg
   version="1.0"
   width="390.000000pt"
   height="232.000000pt"
   viewBox="0 0 390.000000 232.000000"
   preserveAspectRatio="xMidYMid meet"
   id="svg20"
   sodipodi:docname="netlify-logo.svg"
   xml:space="preserve"
   inkscape:version="1.2.2 (b0a8486541, 2022-12-01)"
   xmlns:inkscape="http://www.inkscape.org/namespaces/inkscape"
   xmlns:sodipodi="http://sodipodi.sourceforge.net/DTD/sodipodi-0.dtd"
   xmlns="http://www.w3.org/2000/svg"
   xmlns:svg="http://www.w3.org/2000/svg"><defs
     id="defs24" /><sodipodi:namedview
     id="namedview22"
     pagecolor="#ffffff"
     bordercolor="#000000"
     borderopacity="0.25"
     inkscape:showpageshadow="2"
     inkscape:pageopacity="0.0"
     inkscape:pagecheckerboard="0"
     inkscape:deskcolor="#d1d1d1"
     inkscape:document-units="pt"
     showgrid="false"
     inkscape:zoom="1.4493381"
     inkscape:cx="334.63552"
     inkscape:cy="142.47883"
     inkscape:window-width="1920"
     inkscape:window-height="919"
     inkscape:window-x="0"
     inkscape:window-y="32"
     inkscape:window-maximized="1"
     inkscape:current-layer="svg20" /><g
     transform="translate(0.000000,232.000000) scale(0.100000,-0.100000)"
     fill="#000000"
     stroke="none"
     id="g18"
     style="fill:#004342;fill-opacity:1"><path
       d="M2057 1484 c-4 -4 -7 -126 -7 -271 l0 -263 55 0 55 0 -2 268 -3 267 -45 3 c-25 2 -49 0 -53 -4z"
       id="path2"
       style="fill:#004342;fill-opacity:1" /><path
       d="M2260 1446 l0 -46 56 0 55 0 -3 43 -3 42 -52 3 -53 3 0 -45z"
       id="path4"
       style="fill:#004342;fill-opacity:1" /><path
       d="M2584 1476 c-39 -17 -64 -52 -64 -87 0 -45 -10 -59 -41 -59 -28 0 -29 -2 -29 -44 0 -43 1 -45 33 -48 l32 -3 3 -142 3 -143 49 0 50 0 0 145 0 145 45 0 45 0 0 44 0 45 -42 3 c-40 3 -43 5 -43 33 0 29 2 30 48 33 l47 3 0 45 0 44 -52 0 c-29 -1 -67 -7 -84 -14z"
       id="path6"
       style="fill:#004342;fill-opacity:1" /><path
       d="M1758 1378 c-3 -40 -5 -43 -35 -46 -32 -3 -33 -5 -33 -48 0 -44 0 -44 35 -44 l35 0 0 -110 c0 -107 1 -111 29 -142 26 -30 35 -33 100 -36 l71 -4 0 45 0 46 -47 3 -48 3 -3 98 -3 97 51 0 50 0 0 44 0 45 -47 3 -48 3 -3 43 -3 42 -49 0 -49 0 -3 -42z"
       id="path8"
       style="fill:#004342;fill-opacity:1" /><path
       d="M1385 1326 c-87 -39 -129 -162 -91 -269 18 -50 42 -76 91 -98 52 -24 119 -24 170 1 37 18 75 63 75 89 0 16 -92 13 -114 -4 -30 -23 -74 -18 -101 10 -14 13 -25 29 -25 34 0 6 50 11 128 13 l127 3 -2 53 c-3 75 -36 131 -93 160 -50 25 -119 28 -165 8z m127 -93 c10 -9 18 -24 18 -35 0 -16 -9 -18 -70 -18 -38 0 -70 4 -70 9 0 4 9 20 21 35 24 31 72 35 101 9z"
       id="path10"
       style="fill:#004342;fill-opacity:1" /><path
       d="M850 1140 l0 -190 50 0 50 0 0 145 0 145 59 0 c88 0 91 -5 91 -161 l0 -129 56 0 56 0 -4 138 c-6 219 -28 242 -230 242 l-128 0 0 -190z"
       id="path12"
       style="fill:#004342;fill-opacity:1" /><path
       d="M2260 1139 l0 -190 53 3 52 3 3 188 2 187 -55 0 -55 0 0 -191z"
       id="path14"
       style="fill:#004342;fill-opacity:1" /><path
       d="M2770 1290 c0 -27 20 -90 60 -188 34 -80 59 -156 58 -167 -2 -16 -13 -21 -48 -25 -45 -5 -45 -5 -48 -47 l-3 -43 51 0 c62 0 111 19 133 53 36 55 157 377 157 418 l0 40 -41 -3 -42 -3 -44 -127 c-25 -71 -49 -128 -53 -128 -4 0 -28 57 -53 128 l-44 127 -42 3 -41 3 0 -41z"
       id="path16"
       style="fill:#004342;fill-opacity:1" /></g><rect
     style="fill:#05bdba;fill-opacity:1;stroke:#ffffff;stroke-width:0;stroke-miterlimit:0;stroke-dasharray:none"
     id="rect5281"
     width="10.628193"
     height="47.275318"
     x="93.99369"
     y="38.237724" /><rect
     style="fill:#05bdba;fill-opacity:1;stroke:#ffffff;stroke-width:0;stroke-miterlimit:0;stroke-dasharray:none"
     id="rect5281-6"
     width="10.628193"
     height="47.275318"
     x="95.201759"
     y="149.95276" /><rect
     style="fill:#05bdba;fill-opacity:1;stroke:#ffffff;stroke-width:0;stroke-miterlimit:0;stroke-dasharray:none"
     id="rect6061"
     width="59.435894"
     height="11.560686"
     x="12.161998"
     y="110.99578" /><path
     id="rect6061-7"
     style="fill:#05bdba;fill-opacity:1;stroke:#ffffff;stroke-width:0;stroke-miterlimit:0;stroke-dasharray:none"
     d="M 332.34082 112.61719 L 323.9707 124.02832 L 323.93994 123.95947 L 323.93994 124.17773 L 383.37598 124.17773 L 383.37598 112.61719 L 332.34082 112.61719 z " /><path
     id="rect6063"
     style="fill:#05bdba;fill-opacity:1;stroke:#ffffff;stroke-width:0;stroke-miterlimit:0;stroke-dasharray:none"
     d="m 49.537339,62.60356 -7.542429,6.487571 22.170936,21.392575 0.64998,-0.147855 6.930727,-0.26768 -0.068,-6.098868 z"
     inkscape:transform-center-x="-2.5233325"
     inkscape:transform-center-y="-0.43523501" /><path
     id="rect6063-3"
     style="fill:#05bdba;fill-opacity:1;stroke:#ffffff;stroke-width:0;stroke-miterlimit:0;stroke-dasharray:none"
     d="m 46.192884,164.89636 6.107164,7.85362 22.461398,-21.08739 -0.11557,-0.65649 0.07493,-6.93549 -6.094787,-0.23328 z"
     inkscape:transform-center-x="0.311032"
     inkscape:transform-center-y="-2.50845" /><circle
     id="path7182"
     style="fill:#3f8382;stroke:#ffffff;stroke-width:0.75"
     cx="-234.511"
     cy="75.298622"
     r="0" /></svg>
